<svg width="100%" height="100%" viewBox="0 0 637 257" version="1.1"
    xmlns="http://www.w3.org/2000/svg" xmlns:xlink="http://www.w3.org/1999/xlink"
    xml:space="preserve" xmlns:serif="http://www.serif.com/"
    style="fill-rule:evenodd;clip-rule:evenodd;stroke-linecap:round;stroke-linejoin:round;stroke-miterlimit:1.5;">
    <g id="similar-triangles" serif:id="similar triangles">
        <path id="z-axis-dots" serif:id="z axis dots" d="M613.693,204.831l-590.818,-0" style="fill:none;stroke:#1f7bfe;stroke-width:2.25px;stroke-dasharray:2.25,6.75,0,0;"></path>
        <g id="gizmo">
            <path id="z" d="M168.483,204.831l-69.857,-0" style="fill:none;stroke:#007bff;stroke-width:2.25px;"></path>
            <path id="y" d="M168.342,204.831l0,-69.857" style="fill:none;stroke:#00ff12;stroke-width:2.25px;"></path></g>
        <g id="_-n-and--f" serif:id="-n and -f">
    <g transform="matrix(0.698567,0,0,0.698567,-17.4666,-283.645)">
    <text x="609.358px" y="753.807px" style="font-family:'CMUSerif-Roman', 'CMU Serif';font-weight:500;font-size:30px;fill:#1f7bfe;">-</text>
    <text x="619.348px" y="753.807px" style="font-family:'CMUSerif-Italic', 'CMU Serif';font-weight:500;font-style:italic;font-size:30px;fill:#1f7bfe;">n</text></g>
    <g transform="matrix(0.698567,0,0,0.698567,137.376,-283.318)">
        <text x="609.358px" y="753.807px" style="font-family:'CMUSerif-Roman', 'CMU Serif';font-weight:500;font-size:30px;fill:#1f7bfe;">-</text>
        <text x="619.348px" y="753.807px" style="font-family:'CMUSerif-Italic', 'CMU Serif';font-weight:500;font-style:italic;font-size:30px;fill:#1f7bfe;">f</text>
    </g>
</g>
<g id="everything-black">
    <g id="fov-angle" serif:id="fov angle">
        <path id="angle" d="M248.427,204.192c0,-11.886 -2.708,-23.615 -7.918,-34.298l-2.11,1.029c5.054,10.362 7.681,21.74 7.681,33.269l2.347,-0Z" style="stroke:#f00;stroke-width:0.1px;"></path>
        <text id="text6" x="251.921px" y="193.311px" style="font-family:'CMUSerif-Roman', 'CMU Serif';font-weight:500;font-size:25.148px;stroke:#f00;stroke-width:0.1px;stroke-linecap:butt;stroke-miterlimit:2;">θ</text></g>
        <g id="height">
            <path id="text5" d="M414.266,92.357l-1.429,0l2.198,-2.198l2.199,2.198l-1.429,0l-0,103.042l1.429,0l-2.199,2.198l-2.198,-2.198l1.429,0l-0,-103.042Z" style="stroke:#f00;stroke-width:0.1px;"></path>
            <text id="text3" x="314.697px" y="162.688px" style="font-family:'CMUSerif-Roman', 'CMU Serif';font-weight:500;font-size:25.148px;stroke:#f00;stroke-width:0.1px;stroke-linecap:butt;stroke-miterlimit:2;">height/2</text></g>
            <g id="width">
                <path id="text4" d="M183.563,218.696l-0,1.428l-2.198,-2.198l2.198,-2.198l-0,1.429l220.401,-0l-0,-1.429l2.198,2.198l-2.198,2.198l-0,-1.428l-220.401,-0Z" style="stroke:#f00;stroke-width:0.1px;"></path>
                <text id="text2" x="280.309px" y="237.52px" style="font-family:'CMUSerif-Roman', 'CMU Serif';font-weight:500;font-size:25.148px;stroke:#f00;stroke-width:0.1px;stroke-linecap:butt;stroke-miterlimit:2;">n</text></g>
                <text id="formula" x="181.079px" y="62.684px" style="font-family:'CMUSerif-Italic', 'CMU Serif';font-weight:500;font-style:italic;font-size:25.148px;stroke:#f00;stroke-width:0.1px;stroke-linecap:butt;stroke-miterlimit:2;">tan(θ) = height / 2n</text>
                <path id="near-plane" serif:id="near plane" d="M421.922,82.582l0,122.249" style="fill:none;stroke:#010001;stroke-width:2.25px;"></path>
                <path id="far-plane" serif:id="far plane" d="M571.415,9.875l0,194.956" style="fill:none;stroke:#010001;stroke-width:2.25px;"></path>
                <path id="frustum-top" serif:id="frustum top" d="M571.415,9.875l-149.702,72.6" style="fill:none;stroke:#010001;stroke-width:2.25px;"></path>
                <text id="text8" x="58.117px" y="192.347px" style="font-family:'CMUSerif-Roman', 'CMU Serif';font-weight:500;font-size:20.957px;stroke:#f00;stroke-width:0.1px;stroke-linecap:butt;stroke-miterlimit:2;">+Z</text>
                <text id="text9" x="131.681px" y="121.347px" style="font-family:'CMUSerif-Roman', 'CMU Serif';font-weight:500;font-size:20.957px;stroke:#f00;stroke-width:0.1px;stroke-linecap:butt;stroke-miterlimit:2;">+Y</text>
                <path id="frustum-top-dots" serif:id="frustum top dots" d="M421.713,82.475l-253.23,122.806" style="fill:#010001;stroke:#000;stroke-width:2.25px;stroke-dasharray:2.25,6.75,0,0;"></path>
            </g>
        </g>
</svg>