<svg width="100%" height="100%" viewBox="0 0 888 751" version="1.1" xmlns="http://www.w3.org/2000/svg" xmlns:xlink="http://www.w3.org/1999/xlink" xml:space="preserve" xmlns:serif="http://www.serif.com/" style="fill-rule:evenodd;clip-rule:evenodd;stroke-linecap:round;stroke-linejoin:round;stroke-miterlimit:1.5;"><g id="frustum"><g id="z-axis" serif:id="z axis"><path id="z-axis1" serif:id="z axis" d="M813.113,120.88l-702.458,512.122l-109.905,81.19" style="fill:none;stroke:#007bff;stroke-width:1.5px;stroke-dasharray:1.5,4.5,0,0;"></path><circle cx="634.72" cy="251.343" r="5.88" style="fill:#007bff;stroke:#007bff;stroke-width:3.75px;"></circle><circle cx="354.216" cy="454.961" r="5.88" style="fill:#007bff;stroke:#007bff;stroke-width:3.75px;"></circle></g><g id="point-axis" serif:id="point axis"><path id="z-axis2" serif:id="z axis" d="M675.017,0.75l-665.327,749.322" style="fill:#c600ff;stroke:#c600ff;stroke-width:1.5px;stroke-dasharray:1.5,4.5,0,0;"></path><path d="M533.578,152.833c3.046,-1.121 6.429,0.441 7.55,3.487c1.121,3.046 -0.442,6.428 -3.488,7.549c-3.045,1.121 -6.428,-0.441 -7.549,-3.487c-1.121,-3.046 0.442,-6.428 3.487,-7.549Z" style="fill:#c600ff;stroke:#c600ff;stroke-width:3.75px;"></path><path d="M308.387,406.752c3.046,-1.121 6.429,0.442 7.55,3.487c1.121,3.046 -0.442,6.429 -3.487,7.55c-3.046,1.121 -6.429,-0.442 -7.55,-3.487c-1.121,-3.046 0.442,-6.429 3.487,-7.55Z" style="fill:#c600ff;stroke:#c600ff;stroke-width:3.75px;"></path><path d="M421.203,278.344c3.046,-1.121 6.429,0.442 7.55,3.487c1.121,3.046 -0.442,6.429 -3.488,7.55c-3.045,1.121 -6.428,-0.442 -7.549,-3.488c-1.121,-3.045 0.442,-6.428 3.487,-7.549Z" style="fill:#c600ff;stroke:#c600ff;stroke-width:3.75px;"></path></g><g id="gizmo"><path id="z" d="M123.103,624.64l-57.906,41.887" style="fill:none;stroke:#007bff;stroke-width:2.25px;"></path><path id="y" d="M112.305,565.554l10.798,59.086" style="fill:none;stroke:#00ff12;stroke-width:2.25px;"></path><path id="x" d="M123.103,624.64l52.061,24.748" style="fill:none;stroke:#f00;stroke-width:2.25px;"></path></g><g id="everything-black"><g id="frustum1" serif:id="frustum"><path id="near" d="M248.894,349.237l208.563,65.328" style="fill:none;stroke:#010001;stroke-width:1.5px;"></path><path id="near1" serif:id="near" d="M457.457,414.565l6.18,150.959" style="fill:none;stroke:#010001;stroke-width:1.5px;"></path><path id="near2" serif:id="near" d="M463.637,565.524l-197.528,-75.479" style="fill:none;stroke:#010001;stroke-width:1.5px;"></path><path id="near3" serif:id="near" d="M266.109,490.045l-17.215,-140.808" style="fill:none;stroke:#010001;stroke-width:1.5px;"></path><path id="far" d="M887.101,135.919l-452.217,-71.867" style="fill:none;stroke:#010001;stroke-width:1.5px;stroke-linecap:butt;stroke-miterlimit:2;"></path><path id="far1" serif:id="far" d="M434.884,64.052l11.299,273.344" style="fill:none;stroke:#010001;stroke-width:1.5px;stroke-linecap:butt;stroke-miterlimit:2;"></path><path id="far2" serif:id="far" d="M446.183,337.396l402.385,112.999" style="fill:none;stroke:#010001;stroke-width:1.5px;stroke-linecap:butt;stroke-miterlimit:2;"></path><path id="far3" serif:id="far" d="M848.568,450.395l38.533,-314.476" style="fill:none;stroke:#010001;stroke-width:1.5px;stroke-linecap:butt;stroke-miterlimit:2;"></path><path id="edge" d="M457.457,414.565l429.644,-278.646" style="fill:none;stroke:#010001;stroke-width:1.5px;"></path><path id="edge1" serif:id="edge" d="M463.637,565.524l384.931,-115.129" style="fill:none;stroke:#010001;stroke-width:1.5px;"></path><path id="edge2" serif:id="edge" d="M266.109,490.045l180.074,-152.649" style="fill:none;stroke:#010001;stroke-width:1.5px;"></path><path id="edge3" serif:id="edge" d="M248.894,349.237l185.99,-285.185" style="fill:none;stroke:#010001;stroke-width:1.5px;"></path></g><text id="x1" serif:id="x" x="182.473px" y="668.377px" style="font-family:'CMUSerif-Italic', 'CMU Serif';font-weight:500;font-style:italic;font-size:27px;stroke:#f00;stroke-width:0.1px;stroke-linecap:butt;stroke-miterlimit:2;">+X</text><text id="y1" serif:id="y" x="72.062px" y="556.482px" style="font-family:'CMUSerif-Italic', 'CMU Serif';font-weight:500;font-style:italic;font-size:27px;stroke:#f00;stroke-width:0.1px;stroke-linecap:butt;stroke-miterlimit:2;">+Y</text><text id="z1" serif:id="z" x="14.802px" y="665.199px" style="font-family:'CMUSerif-Italic', 'CMU Serif';font-weight:500;font-style:italic;font-size:27px;stroke:#f00;stroke-width:0.1px;stroke-linecap:butt;stroke-miterlimit:2;">+Z</text><text id="porjected-point" serif:id="porjected point" x="126.271px" y="410.309px" style="font-family:'CMUSerif-Italic', 'CMU Serif';font-weight:500;font-style:italic;font-size:27px;stroke:#f00;stroke-width:0.1px;stroke-linecap:butt;stroke-miterlimit:2;">(xp,yp,zp)</text><text id="eye-point" serif:id="eye point" x="322.57px" y="262.673px" style="font-family:'CMUSerif-Italic', 'CMU Serif';font-weight:500;font-style:italic;font-size:27px;stroke:#f00;stroke-width:0.1px;stroke-linecap:butt;stroke-miterlimit:2;">(xe,ye,ze)</text></g></g></svg>