<svg width="100%" height="100%" viewBox="0 0 1120 451" version="1.1" xmlns="http://www.w3.org/2000/svg" xmlns:xlink="http://www.w3.org/1999/xlink" xml:space="preserve" xmlns:serif="http://www.serif.com/" style="fill-rule:evenodd;clip-rule:evenodd;stroke-linecap:round;stroke-linejoin:round;stroke-miterlimit:1.5;"><g id="side-view" serif:id="side view"><g id="everything-black"><path id="ze" d="M778.574,66.217l0,318.645" style="fill:none;stroke:#000;stroke-width:1.5px;stroke-dasharray:1.5,4.5,0,0;"></path><text x="343.145px" y="123.397px" style="font-family:'CMUSerif-Italic', 'CMU Serif';font-weight:500;font-style:italic;font-size:27px;stroke:#f00;stroke-width:0.1px;stroke-linecap:butt;stroke-miterlimit:2;">(zp,yp)</text><text x="787.69px" y="95.92px" style="font-family:'CMUSerif-Italic', 'CMU Serif';font-weight:500;font-style:italic;font-size:27px;stroke:#f00;stroke-width:0.1px;stroke-linecap:butt;stroke-miterlimit:2;">(ze,ye)</text><text x="8.236px" y="206.774px" style="font-family:'CMUSerif-Italic', 'CMU Serif';font-weight:500;font-style:italic;font-size:27px;stroke:#f00;stroke-width:0.1px;stroke-linecap:butt;stroke-miterlimit:2;">+Z</text><text x="71.251px" y="148.951px" style="font-family:'CMUSerif-Italic', 'CMU Serif';font-weight:500;font-style:italic;font-size:27px;stroke:#f00;stroke-width:0.1px;stroke-linecap:butt;stroke-miterlimit:2;">+Y</text><g id="frustum"><path d="M1054.85,0.75l-636.038,149.84" style="fill:none;stroke:#000;stroke-width:1.5px;"></path><path d="M1054.85,0.75l-0.017,449.046" style="fill:none;stroke:#000;stroke-width:1.5px;"></path><path d="M418.81,300.054l636.021,149.742" style="fill:none;stroke:#000;stroke-width:1.5px;"></path><path d="M418.81,300.054l-0,-149.464" style="fill:none;stroke:#000;stroke-width:1.5px;"></path></g></g><path id="z-axis" serif:id="z axis" d="M0.75,225.345l1118.27,0" style="fill:none;stroke:#1f7bfe;stroke-width:1.5px;stroke-dasharray:1.5,4.5,0,0;"></path><path id="point-axis" serif:id="point axis" d="M1.846,240.164l1106.11,-164.494" style="fill:none;stroke:#c60dfc;stroke-width:1.5px;stroke-dasharray:1.5,4.5,0,0;"></path><g id="gizmo"><path id="z" d="M38.681,225.345l62.807,0" style="fill:none;stroke:#1f7bfe;stroke-width:1.5px;"></path><path id="y" d="M101.488,225.345l0,-63.309" style="fill:none;stroke:#0cfe13;stroke-width:1.5px;"></path></g><path id="hit2" d="M416.476,173.322c3.046,-1.121 6.428,0.442 7.549,3.487c1.121,3.046 -0.441,6.429 -3.487,7.55c-3.045,1.121 -6.428,-0.442 -7.549,-3.488c-1.121,-3.045 0.441,-6.428 3.487,-7.549Z" style="fill:#c600ff;stroke:#c600ff;stroke-width:3.75px;"></path><path id="hit1" d="M776.543,119.11c3.046,-1.121 6.428,0.442 7.549,3.487c1.121,3.046 -0.441,6.429 -3.487,7.55c-3.045,1.121 -6.428,-0.442 -7.549,-3.487c-1.121,-3.046 0.441,-6.429 3.487,-7.55Z" style="fill:#c600ff;stroke:#c600ff;stroke-width:3.75px;"></path><g transform="matrix(0.75,0,0,0.75,-74.1309,-315.548)"><text x="609.358px" y="753.807px" style="font-family:'CMUSerif-Roman', 'CMU Serif';font-weight:500;font-size:36px;fill:#1f7bfe;">-</text><text x="621.346px" y="753.807px" style="font-family:'CMUSerif-Italic', 'CMU Serif';font-weight:500;font-style:italic;font-size:36px;fill:#1f7bfe;">n</text></g><text x="1025.25px" y="250.738px" style="font-family:'CMUSerif-Italic', 'CMU Serif';font-weight:500;font-style:italic;font-size:27px;fill:#1f7bfe;">-f</text></g></svg>